<svg width="398" height="125" viewBox="0 0 398 125" fill="none" xmlns="http://www.w3.org/2000/svg">
<path d="M371.82 32.0556L394.42 21.9035C391.363 15.5796 380.339 0 358.215 0C340.977 0 330.429 9.78872 325.318 17.3968C319.279 27.5489 315.546 50.9789 339.749 64.8382L363.427 78.9397C377.432 87.3474 371.119 100.843 358.215 100.843C347.316 100.843 341.428 89.8914 341.428 89.8914L318.753 100.116C324.04 111.262 337.169 124.976 358.741 124.976C377.984 124.976 391.063 112.11 395.322 100.94C403.69 79.497 388.357 65.7346 377.432 59.2896L353.906 45.3576C340.025 37.3619 346.038 24.0599 358.741 24.0599C364.679 24.0599 369.515 27.6216 371.82 32.0314V32.0556ZM264.659 122.577H289.514V2.37449H266.237V82.7922H265.811L210.088 2.37449H185.234V122.577H208.51V42.1593H208.936L264.659 122.577ZM119.965 122.601H144.819V98.5656H119.965V122.601ZM119.965 86.5478H144.819V2.39872H119.965V86.5236V86.5478ZM79.4252 86.5962V2.39872H54.5704V86.5236C54.5704 94.5677 47.4797 100.819 39.4119 100.819C28.4628 100.819 22.65 89.8914 22.65 89.8914L0 100.141C6.28887 113.152 20.1444 125 39.9381 125C61.7362 125 79.4252 107.7 79.4252 86.6205V86.5962Z" fill="#DA0024"/>
</svg>
